<?xml version="1.0" standalone="no"?>
<!DOCTYPE svg PUBLIC "-//W3C//DTD SVG 20010904//EN"
 "http://www.w3.org/TR/2001/REC-SVG-20010904/DTD/svg10.dtd">
<svg version="1.0" xmlns="http://www.w3.org/2000/svg"
 width="1024.000000pt" height="1024.000000pt" viewBox="0 0 1024.000000 1024.000000"
 preserveAspectRatio="xMidYMid meet">
<metadata>
Created by potrace 1.16, written by Peter Selinger 2001-2019
</metadata>
<g transform="translate(0.000000,1024.000000) scale(0.100000,-0.100000)"
fill="#000000" stroke="none">
<path d="M5185 6490 c-145 -30 -256 -113 -318 -240 l-32 -64 -3 -239 c-2 -142
1 -258 7 -288 35 -160 163 -285 329 -320 82 -17 233 -7 305 21 79 30 166 111
200 187 42 95 44 90 -58 124 -49 16 -93 29 -97 29 -4 0 -14 -15 -22 -34 -30
-73 -128 -136 -211 -136 -56 0 -131 33 -172 76 -61 63 -73 113 -73 310 0 141
3 171 21 219 23 63 74 120 127 142 46 19 140 18 189 -2 50 -21 110 -80 124
-122 6 -19 17 -33 26 -33 9 0 54 12 100 28 l84 27 -6 35 c-17 89 -103 194
-199 239 -97 46 -219 62 -321 41z"/>
<path d="M5887 6473 c-4 -3 -7 -258 -7 -565 l0 -558 105 0 105 0 2 233 3 232
218 2 217 2 0 -234 0 -235 110 0 110 0 0 565 0 565 -110 0 -110 0 0 -230 0
-230 -217 2 -218 3 -3 228 -2 227 -99 0 c-54 0 -101 -3 -104 -7z"/>
<path d="M7285 6468 c-43 -120 -385 -1108 -385 -1112 0 -3 49 -6 109 -6 l109
0 42 125 42 125 222 0 221 0 38 -113 c21 -61 41 -118 46 -125 6 -9 36 -12 113
-10 l105 3 -195 563 -195 562 -134 0 c-98 0 -135 -3 -138 -12z m220 -452 c41
-120 75 -220 75 -222 0 -2 -72 -4 -160 -4 -88 0 -160 2 -160 4 0 2 32 91 71
198 39 106 76 206 81 221 6 15 12 26 14 24 2 -2 37 -101 79 -221z"/>
<path d="M8100 5915 l0 -565 108 0 107 0 -2 562 -3 563 -105 3 -105 3 0 -566z"/>
<path d="M8560 5915 l0 -565 110 0 110 0 2 365 3 364 231 -362 231 -362 106
-3 107 -3 0 566 0 565 -105 0 -105 0 -2 -376 -3 -376 -240 376 -240 376 -102
0 -103 0 0 -565z"/>
<path d="M1795 5651 c-51 -23 -101 -80 -115 -130 -7 -27 -10 -280 -8 -783 3
-739 3 -743 25 -783 27 -50 58 -80 105 -100 33 -13 131 -15 763 -15 784 0 765
-1 823 53 51 47 57 71 62 258 l5 177 48 51 c27 28 60 77 75 109 26 55 27 64
27 227 0 161 -1 173 -25 220 -13 28 -44 69 -68 93 -24 24 -47 55 -53 68 -5 14
-9 115 -9 225 0 180 -2 204 -20 239 -22 44 -68 82 -119 99 -24 8 -242 11 -755
11 -676 0 -724 -2 -761 -19z m1475 -404 c6 -265 1 -246 77 -288 17 -9 43 -33
59 -54 28 -37 29 -42 32 -176 4 -166 -9 -209 -80 -258 -23 -17 -52 -37 -63
-44 -19 -14 -20 -29 -25 -213 l-5 -199 -694 -3 c-504 -1 -698 1 -707 9 -12 9
-14 137 -14 734 0 397 3 725 7 728 3 4 322 6 707 5 l701 -3 5 -238z"/>
<path d="M2097 5308 c-27 -20 -30 -97 -9 -288 l19 -175 -34 -133 c-18 -73 -31
-137 -28 -143 4 -5 39 -31 79 -58 92 -62 200 -149 299 -240 l77 -71 65 0 64 0
99 88 c106 95 225 188 310 241 62 40 63 42 24 196 l-28 110 20 223 20 223 -21
21 c-29 29 -47 22 -191 -71 l-123 -79 -162 -1 -162 -1 -139 85 c-76 47 -144
85 -150 85 -7 0 -20 -6 -29 -12z m180 -184 c76 -53 92 -69 81 -78 -74 -66
-158 -137 -158 -135 0 2 -7 60 -15 129 -17 141 -17 150 -9 150 3 0 48 -30 101
-66z m682 -70 c-6 -65 -13 -125 -15 -132 -4 -14 -36 8 -123 85 l-45 40 94 66
c52 36 95 65 97 64 1 -2 -2 -57 -8 -123z m-161 -150 c81 -71 148 -129 149
-129 2 -1 13 -37 26 -81 l22 -79 -80 -57 c-44 -32 -92 -66 -106 -77 l-26 -20
-32 45 c-29 42 -32 51 -30 120 l2 75 59 16 c65 18 86 40 68 73 -13 24 -33 25
-114 4 -90 -23 -96 -31 -96 -134 l0 -86 -35 -17 c-33 -16 -39 -16 -65 -2 -29
15 -30 18 -31 88 -2 114 -4 119 -84 145 -78 25 -113 25 -129 0 -16 -27 4 -51
55 -66 24 -8 50 -15 57 -18 8 -2 12 -27 12 -79 0 -71 -2 -79 -32 -118 -18 -23
-34 -43 -34 -45 -2 -3 -93 62 -192 136 l-22 17 22 79 22 79 143 119 c79 66
141 123 138 128 -2 4 38 8 90 9 l95 2 148 -127z m-245 -447 c31 -9 42 -8 68 7
l31 18 37 -37 36 -37 -65 -59 c-89 -81 -112 -81 -198 2 l-62 61 27 22 c15 11
34 26 42 33 9 7 23 10 31 6 8 -3 32 -11 53 -16z"/>
<path d="M3255 4755 c-45 -44 -29 -116 31 -141 89 -37 167 73 99 141 -34 35
-96 35 -130 0z"/>
<path d="M5140 4195 l0 -655 125 0 125 0 0 270 0 270 265 0 265 0 0 -270 0
-270 125 0 125 0 0 655 0 655 -125 0 -125 0 0 -265 0 -265 -265 0 -265 0 0
265 0 265 -125 0 -125 0 0 -655z"/>
<path d="M6470 4195 l0 -655 125 0 125 0 0 655 0 655 -125 0 -125 0 0 -655z"/>
<path d="M6910 4846 c0 -3 99 -293 220 -646 121 -352 220 -645 220 -651 0 -6
60 -8 161 -7 l161 3 69 200 c38 110 137 398 221 640 83 242 153 446 156 453 3
10 -24 12 -128 10 l-132 -3 -171 -508 -171 -508 -19 53 c-33 96 -327 963 -327
965 0 2 -58 3 -130 3 -71 0 -130 -2 -130 -4z"/>
<path d="M8300 4195 l0 -655 420 0 420 0 0 115 0 115 -295 0 -295 0 0 155 0
155 260 0 260 0 0 115 0 115 -260 0 -260 0 0 155 0 155 295 0 295 0 0 115 0
115 -420 0 -420 0 0 -655z"/>
<path d="M4708 4357 c3 -368 0 -443 -18 -432 -6 3 -7 -1 -4 -9 4 -11 0 -14
-16 -11 -13 2 -31 0 -41 -6 -13 -6 -19 -6 -19 1 0 5 5 10 12 10 6 0 8 3 5 6
-4 4 -13 2 -20 -4 -8 -7 -17 -9 -21 -5 -3 4 -15 7 -27 8 -13 1 -16 -2 -9 -9 5
-5 10 -15 10 -21 0 -7 -3 -7 -8 0 -4 6 -19 18 -34 28 -21 13 -26 14 -22 3 8
-20 -25 -34 -61 -26 -30 6 -30 6 -7 18 12 7 28 10 34 6 6 -4 8 -3 4 4 -3 5 10
20 29 32 19 12 40 30 45 40 6 11 9 137 8 322 l-2 303 -6 -306 c-4 -232 -8
-310 -18 -322 -7 -8 -127 -83 -266 -166 -177 -106 -263 -151 -284 -151 -30 0
-55 13 -291 148 -108 61 -115 64 -128 47 -21 -30 -15 -42 8 -15 11 14 17 19
13 11 -4 -8 -3 -12 2 -8 6 3 16 1 24 -5 13 -8 12 -9 -1 -5 -9 3 -27 -2 -40
-11 -13 -9 -26 -16 -29 -16 -3 1 -22 -13 -43 -31 l-38 -33 178 -103 c209 -121
233 -142 233 -196 0 -22 -6 -46 -12 -55 -7 -9 -123 -81 -258 -161 -135 -79
-261 -154 -280 -165 -55 -34 -94 -29 -195 29 -246 141 -425 251 -439 271 -13
18 -16 52 -16 165 l0 143 -95 0 -95 0 0 -155 c0 -135 -2 -157 -17 -171 -35
-32 -522 -314 -543 -314 -27 0 -18 -5 -330 181 -146 87 -273 166 -283 177 -28
30 -31 74 -9 103 11 14 106 76 211 138 171 101 222 135 175 117 -8 -3 -13 -2
-9 3 7 12 -50 53 -59 43 -4 -4 -6 0 -4 8 2 8 -2 14 -9 13 -7 -2 -10 3 -8 10 2
6 -2 20 -9 30 -12 16 -27 9 -192 -90 -136 -81 -187 -107 -212 -106 -23 1 -106
44 -285 148 -139 81 -262 157 -274 168 -23 20 -23 23 -26 341 l-2 321 -3 -326
c-2 -313 -1 -327 18 -344 11 -10 17 -22 14 -26 -3 -5 1 -6 9 -3 8 3 17 -2 21
-11 3 -9 10 -14 15 -11 7 5 81 -30 81 -38 0 -1 -9 -2 -19 -2 -11 0 -18 4 -15
8 2 4 -5 6 -16 5 -11 -1 -20 -5 -20 -11 0 -5 -8 -2 -17 6 -21 17 -63 21 -63 6
0 -6 -9 -8 -20 -5 -11 3 -17 1 -14 -4 3 -6 -6 -8 -23 -6 -15 2 -36 0 -46 -5
-23 -12 -48 7 -40 29 4 10 2 14 -5 9 -18 -11 -21 18 -28 279 -3 138 -8 252
-10 254 -2 2 -4 -108 -4 -245 0 -305 2 -309 106 -370 440 -258 557 -330 569
-348 7 -11 15 -53 17 -92 3 -44 12 -81 22 -95 9 -13 155 -104 324 -203 410
-238 449 -259 487 -253 16 3 140 69 275 148 337 196 342 199 370 199 14 0 43
-11 65 -23 22 -13 157 -92 299 -175 290 -170 299 -173 377 -124 24 15 189 113
367 216 191 112 330 199 339 213 10 15 19 57 23 105 5 72 8 83 33 102 15 12
136 85 270 164 319 186 334 196 357 234 19 31 20 51 20 418 0 212 -4 390 -8
397 -4 6 -6 -156 -4 -360z"/>
</g>
</svg>
