<svg xmlns="http://www.w3.org/2000/svg" width="96" height="96" fill="none" viewBox="0 0 96 96" id="ethereum-wallet">
  <path fill="url(#paint0_linear_531_32264)" fill-rule="evenodd" d="M58.2007 12.3501L21.2168 30.4996H61.8021L61.8021 14.5944C61.8021 12.7441 59.8618 11.535 58.2007 12.3501ZM10.4149 35.8006L10.3139 35.595C9.26679 35.8931 8.5 36.8568 8.5 37.9996V80.9996C8.5 82.3803 9.61929 83.4996 11 83.4996H79C80.3807 83.4996 81.5 82.3804 81.5 80.9996V69.4996H72C66.201 69.4996 61.5 64.7986 61.5 58.9996C61.5 53.2007 66.201 48.4996 72 48.4996H81.5V37.9996C81.5 36.6189 80.3807 35.4996 79 35.4996H11.0281L10.4149 35.8006ZM86.5 48.4996V37.9996C86.5 33.8575 83.1421 30.4996 79 30.4996H66.8021V14.5944C66.8021 9.04343 60.9813 5.41597 55.9979 7.86149L9.60259 30.6296C6.12825 31.2843 3.5 34.335 3.5 37.9996V80.9996C3.5 85.1418 6.85787 88.4996 11 88.4996H79C83.1421 88.4996 86.5 85.1418 86.5 80.9996V69.4996H87.3766C89.6539 69.4996 91.5 67.6535 91.5 65.3763V52.623C91.5 50.3457 89.6539 48.4996 87.3766 48.4996H86.5ZM66.5 58.9996C66.5 55.9621 68.9624 53.4996 72 53.4996H86.5V64.4996H72C68.9624 64.4996 66.5 62.0372 66.5 58.9996ZM75 58.9996C75 60.6565 73.6569 61.9996 72 61.9996C70.3431 61.9996 69 60.6565 69 58.9996C69 57.3428 70.3431 55.9996 72 55.9996C73.6569 55.9996 75 57.3428 75 58.9996ZM19.8635 60.4886L30.489 66.8056C30.8039 66.9928 31.1961 66.9928 31.511 66.8056L42.1365 60.4886C42.6127 60.2055 42.768 59.5891 42.4827 59.1141L31.8572 41.4266C31.4687 40.7799 30.5313 40.7799 30.1428 41.4266L19.5173 59.1141C19.232 59.5891 19.3873 60.2055 19.8635 60.4886ZM21.033 63.5433C23.538 65.0131 27.7924 67.5207 30.4861 69.1712C30.8038 69.3659 31.2009 69.368 31.5212 69.1776L40.932 63.5827C41.3982 63.3056 41.9103 63.865 41.5931 64.3049L31.8112 77.8744C31.4121 78.428 30.5879 78.428 30.1888 77.8744L20.378 64.2649C20.0622 63.8268 20.5672 63.27 21.033 63.5433Z" clip-rule="evenodd"></path>
  <defs>
    <linearGradient id="paint0_linear_531_32264" x1="47.5" x2="47.5" y1="7.085" y2="88.5" gradientUnits="userSpaceOnUse">
      <stop stop-color="#8000FF"></stop>
      <stop offset="1" stop-color="#33009F"></stop>
    </linearGradient>
  </defs>
</svg>
